# xmcd
#
# Track frame offsets: 
#        150
#        29343
#        57155
#        71465
#        103578
#        150535
#        175849
#        192773
#        218100
#        254172
#        279420
#
# Disc length: 4105 seconds
#
# Revision: 2
# Processed by: cddbd v1.5.2PL0 Copyright (c) Steve Scherf et al.
# Submitted via: ExactAudioCopy v0.99pb5
#
DISCID=9910070b
DTITLE=Mark Dresser, Denman Maroney - Time Changes
DYEAR=2005
DGENRE=Avantgarde
TTITLE0=Aperitivo
TTITLE1=Pulse Field
TTITLE2=Heap
TTITLE3=M.C.
TTITLE4=One Plate
TTITLE5=Double You
TTITLE6=Harkemony
TTITLE7=Lateral Mass
TTITLE8=Kilter
TTITLE9=Between 17th And Bliss
TTITLE10=Ekoneni
EXTD=YEAR: 2005
EXTT0=
EXTT1=
EXTT2=
EXTT3=
EXTT4=
EXTT5=
EXTT6=
EXTT7=
EXTT8=
EXTT9=
EXTT10=
PLAYORDER=
